# xmcd
#
# Track frame offsets:
# 150
# 11007
# 28673
# 44307
# 60633
# 72738
# 85762
# 104135
# 121873
# 135897
# 157697
#
# Disc length: 2369 seconds
#
#
# Revision: 0
# Processed by: cddbd v1.5PL3 Copyright (c) Steve Scherf et al.
# Submitted via: FreeRIP 2.53 
#
DISCID=8a093f0b
DTITLE=Brooks, Garth - Ropin' The Wind
DYEAR=1900
DGENRE=
TTITLE0=Against The Grain
TTITLE1=Rodeo
TTITLE2=What's She Doing Now
TTITLE3=Burning Bridges
TTITLE4=Which One Of Them
TTITLE5=Papa Loved Mama
TTITLE6=Shameless
TTITLE7=Cold Shoulder
TTITLE8=We Bury The Hatchet
TTITLE9=In Lonesome Dove
TTITLE10=The River
EXTD=
EXTT0=
EXTT1=
EXTT2=
EXTT3=
EXTT4=
EXTT5=
EXTT6=
EXTT7=
EXTT8=
EXTT9=
EXTT10=
PLAYORDER=
